<svg xmlns="http://www.w3.org/2000/svg" viewBox="0 0 800 400">
  <defs>
    <linearGradient id="bg20" x1="0%" y1="0%" x2="100%" y2="100%">
      <stop offset="0%" style="stop-color:#1a1a2e"/>
      <stop offset="100%" style="stop-color:#16213e"/>
    </linearGradient>
    <filter id="glow20"><feGaussianBlur stdDeviation="3" result="blur"/><feMerge><feMergeNode in="blur"/><feMergeNode in="SourceGraphic"/></feMerge></filter>
  </defs>
  <rect width="800" height="400" fill="url(#bg20)" rx="20"/>
  <text x="400" y="45" text-anchor="middle" fill="#e0e0ff" font-size="24" font-family="Arial" font-weight="bold">زاويتان على نفس القوس</text>
  <circle cx="400" cy="210" r="140" fill="rgba(100,180,255,0.08)" stroke="#64b5ff" stroke-width="3"/>
  <circle cx="300" cy="80" r="6" fill="#ff6b6b"/><text x="280" y="68" fill="#ff6b6b" font-size="24" font-family="Arial" font-weight="bold">أ</text>
  <circle cx="580" cy="260" r="6" fill="#ff6b6b"/><text x="595" y="270" fill="#ff6b6b" font-size="24" font-family="Arial" font-weight="bold">ب</text>
  <circle cx="320" cy="330" r="6" fill="#69db7c"/><text x="300" y="355" fill="#69db7c" font-size="24" font-family="Arial" font-weight="bold">ج</text>
  <circle cx="480" cy="310" r="6" fill="#da77f2"/><text x="495" y="335" fill="#da77f2" font-size="24" font-family="Arial" font-weight="bold">د</text>
  <line x1="300" y1="80" x2="580" y2="260" stroke="#69db7c" stroke-width="2"/>
  <line x1="300" y1="80" x2="320" y2="330" stroke="#69db7c" stroke-width="2"/>
  <line x1="580" y1="260" x2="480" y2="310" stroke="#da77f2" stroke-width="2"/>
  <line x1="480" y1="310" x2="300" y2="80" stroke="#da77f2" stroke-width="2"/>
  <path d="M 315,95 A 20 20 0 0 1 325,105" stroke="#69db7c" stroke-width="2" fill="none"/>
  <text x="335" y="105" fill="#69db7c" font-size="17" font-weight="bold">س+20</text>
  <path d="M 570,248 A 20 20 0 0 0 560,250" stroke="#da77f2" stroke-width="2" fill="none"/>
  <text x="555" y="270" fill="#da77f2" font-size="17" font-weight="bold">2س-10</text>
  <text x="400" y="385" text-anchor="middle" fill="#8899cc" font-size="15">قيمتهما متساوية ← أوجد س</text>
</svg>